<svg viewBox="0 0 21 23" fill="none" xmlns="http://www.w3.org/2000/svg">
<path d="M5.80462 1.2946C4.80462 2.0946 3.87128 3.62793 3.60462 4.96126C3.33795 6.62793 2.80462 7.2946 1.73795 7.42793C0.00461667 7.6946 -0.728717 11.2946 0.93795 11.2946C2.20462 11.2946 2.20462 11.1613 1.00462 16.6279C-0.328717 22.6279 -0.328717 22.6279 2.27128 22.6279C4.33795 22.6279 4.53795 22.4279 5.00462 20.1613C6.53795 11.5613 6.60462 11.3613 8.87128 11.1613C10.6713 11.0279 11.0713 10.6279 11.2046 9.0946C11.4046 7.4946 11.2046 7.2946 9.40462 7.2946C8.27128 7.2946 7.33795 7.02793 7.33795 6.76126C7.33795 5.4946 9.13795 4.02793 11.0046 3.82793C12.6713 3.6946 13.0046 3.2946 13.0046 1.96126C13.0046 0.494598 12.6713 0.294598 10.2713 0.0945977C8.33795 -0.0387356 7.13795 0.294598 5.80462 1.2946Z" fill="black"/>
<path d="M16.4044 1.02771C15.0711 2.36104 15.2044 3.89437 16.8711 4.89438C18.5377 5.96104 20.3377 4.62771 20.3377 2.22771C20.3377 -0.105625 18.1377 -0.772292 16.4044 1.02771Z" fill="black"/>
<path d="M14.8712 8.62799C15.0712 9.36133 14.9379 9.96133 14.5379 9.96133C14.2046 9.96133 14.1379 10.5613 14.3379 11.2947C14.6046 12.0947 14.4712 12.628 14.0046 12.628C13.5379 12.628 13.3379 13.0947 13.5379 13.628C13.8046 14.1613 13.6712 14.7613 13.2712 15.028C12.8712 15.2947 12.8712 15.7613 13.4046 16.3613C14.0046 17.0947 14.0046 17.2947 13.3379 17.2947C12.8712 17.2947 12.6712 17.828 12.8046 18.4947C13.0046 19.1613 12.7379 20.028 12.2046 20.4947C11.7379 20.9613 11.3379 21.628 11.3379 21.9613C11.3379 22.828 13.1379 22.828 13.6712 21.9613C13.8712 21.5613 14.6712 21.2947 15.4712 21.2947C16.4712 21.2947 16.7379 20.9613 16.4712 19.9613C16.2712 19.228 16.4046 18.628 16.8046 18.628C17.2046 18.628 17.3379 18.228 17.1379 17.6947C16.9379 17.228 17.1379 16.428 17.5379 16.028C18.1379 15.428 18.0712 15.0947 17.3379 14.628C16.5379 14.0947 16.5379 13.9613 17.2712 13.9613C17.8046 13.9613 18.0046 13.4947 17.8046 12.628C17.6046 11.8947 17.7379 11.2947 18.0712 11.2947C18.4046 11.2947 18.6712 10.9613 18.6712 10.628C18.6712 9.69466 16.2046 7.29466 15.2712 7.29466C14.8712 7.29466 14.6712 7.89466 14.8712 8.62799Z" fill="black"/>
</svg>
