<svg viewBox="0 0 104 89" fill="none" xmlns="http://www.w3.org/2000/svg">
<path d="M16.2569 74.4243L13.9116 79.9776C13.5884 80.8678 13.6172 81.8477 13.9921 82.7174C14.367 83.587 15.0596 84.2808 15.9287 84.6571C16.7554 85.0692 17.7039 85.1663 18.5969 84.9302C19.49 84.694 20.2665 84.1408 20.7814 83.3738L21.5853 81.4526L16.2569 74.4243Z" fill="#232323"/>
<path d="M51.9334 2.22683C57.8808 2.24273 63.6633 4.18323 68.4165 7.75803C68.6904 7.99663 69.0414 8.12813 69.4047 8.12813C69.768 8.12813 70.119 7.99663 70.393 7.75803C70.6668 7.50703 70.8313 7.15883 70.8513 6.78793C70.8713 6.41703 70.7451 6.05313 70.4999 5.77413C69.6518 4.71373 68.4902 3.94843 67.1812 3.58743C68.3691 2.33153 69.8257 1.36043 71.4419 0.746832C73.0581 0.133132 74.7921 -0.107168 76.5142 0.0438318C85.0803 0.0438318 103.278 12.4854 103.278 35.8125C103.278 58.2104 88.6129 63.0373 84.6267 63.0373C78.5608 63.0373 72.2699 56.7686 72.2699 52.7824C74.5178 51.4891 76.4601 49.7258 77.9639 47.6129C79.4678 45.5 80.4977 43.0874 80.9835 40.5399C80.9835 40.5399 81.3043 30.9856 80.9835 22.8915C80.9184 22.5329 80.74 22.2046 80.4746 21.9549C80.2102 21.7064 79.8726 21.5499 79.5122 21.5087C79.3119 21.5056 79.1131 21.5421 78.927 21.6162C78.741 21.6902 78.5714 21.8003 78.428 21.9401C78.1373 22.2238 77.9704 22.6108 77.9634 23.0169C77.9634 23.9203 78.3617 29.5143 78.063 39.559C77.7833 41.8305 76.9306 43.9936 75.5851 45.845C74.2395 47.6963 72.4452 49.175 70.3709 50.1421C71.1548 47.9377 71.805 45.6879 72.3179 43.4051C72.5059 42.5238 72.3178 41.9116 71.7315 41.6609C71.4854 41.5514 71.2113 41.5209 70.9471 41.5738C70.6829 41.6266 70.4416 41.7601 70.2565 41.9559C70.1332 42.0864 70.0378 42.2407 69.9763 42.4094C69.5817 43.2023 55.6504 88.5031 36.3795 88.5031C20.0992 88.5031 10.7145 65.272 10.7145 59.9435C10.5904 59.0041 10.6597 58.0492 10.9184 57.1376C11.177 56.226 11.6193 55.3769 12.2182 54.6426C12.8172 53.9083 13.56 53.3043 14.401 52.8677C15.242 52.4311 16.1634 52.1712 17.1086 52.1039C20.0236 52.4758 22.7084 53.881 24.6753 56.0643C25.1732 57.023 22.5292 59.3203 22.5292 59.3203L20.2245 57.4766C19.9651 57.2752 19.6438 57.1702 19.3155 57.1796C18.9873 57.189 18.6725 57.3123 18.425 57.5282C18.1726 57.7745 18.0272 58.1102 18.0203 58.4628C18.0134 58.8154 18.1455 59.1566 18.3882 59.4125C18.9745 60.0025 36.5749 74.1846 36.5749 74.1846C36.8531 74.4485 37.2149 74.6066 37.5975 74.6315C37.9801 74.6565 38.3593 74.5466 38.6694 74.3211C38.934 74.0693 39.0889 73.7236 39.1006 73.3586C39.1123 72.9936 38.98 72.6386 38.7321 72.3704L33.7761 68.3768L39.0566 53.5162C39.0566 53.5162 30.9441 49.8951 25.6636 53.8849C24.753 52.4939 23.5189 51.3442 22.0669 50.5344C20.6148 49.7246 18.9882 49.2787 17.3262 49.235C14.9534 49.1983 12.6579 50.0779 10.9173 51.6909C9.16888 53.3084 8.10328 55.5319 7.93778 57.908C2.61185 51.8495 -0.219816 43.9975 0.0133339 35.9342C0.0133339 19.7903 12.7979 0.0364313 27.6217 0.0364313C30.9672 0.0333313 34.2101 1.19203 36.7962 3.31463L33.5217 5.80363C33.2441 6.06773 33.078 6.42793 33.0574 6.81053C33.0369 7.19303 33.1634 7.56903 33.411 7.86133C33.6426 8.12083 33.9631 8.28423 34.3092 8.31903C34.6554 8.35383 35.002 8.25763 35.2806 8.04933C39.8868 4.05743 45.8433 1.97473 51.9334 2.22683Z" fill="#516CB3"/>
<path d="M28.9713 64.5456L33.6655 53.9108C35.5428 54.2623 37.4458 54.4597 39.3553 54.5008C45.0651 54.3788 50.4969 52.0116 54.4734 47.9123C58.4499 43.8129 60.6507 38.3117 60.599 32.6008C60.6938 26.7328 58.4538 21.0676 54.3716 16.8513C50.2895 12.6349 44.6996 10.2129 38.8317 10.1181C32.9638 10.0232 27.2985 12.2632 23.0822 16.3454C18.8658 20.4276 16.4438 26.0175 16.349 31.8854C16.2065 35.6394 17.0508 39.3651 18.7978 42.6909C20.5448 46.0166 23.1334 48.8261 26.3052 50.8391L22.5292 59.3536L28.9713 64.5456ZM65.507 33.2387C65.3081 33.2391 65.1123 33.1889 64.9382 33.0927C64.764 32.9966 64.6171 32.8578 64.5114 32.6893C64.4055 32.5202 64.3439 32.3272 64.3323 32.128C64.3207 31.9289 64.3595 31.73 64.445 31.5498C64.8657 30.6699 65.5117 29.9168 66.3173 29.367C67.1229 28.8172 68.0595 28.4902 69.0323 28.4191C69.9863 28.4683 70.9107 28.7666 71.7136 29.2841C72.5165 29.8017 73.1698 30.5206 73.6085 31.3691C73.6838 31.5078 73.7308 31.6601 73.7466 31.8171C73.7625 31.9741 73.7468 32.1327 73.7007 32.2836C73.6548 32.4342 73.5794 32.5741 73.4787 32.695C73.378 32.816 73.2541 32.9156 73.1144 32.9879C72.9744 33.0592 72.8215 33.1016 72.6649 33.1126C72.5082 33.1237 72.3509 33.1032 72.2023 33.0523C72.0538 33.0014 71.9169 32.9211 71.7999 32.8163C71.683 32.7115 71.5882 32.5843 71.5214 32.4422C71.2791 31.9783 70.9243 31.5826 70.4894 31.2914C70.0545 31.0002 69.5535 30.8228 69.0323 30.7754C67.4356 30.7754 66.5764 32.5491 66.5617 32.5491C66.4692 32.7518 66.3209 32.924 66.1341 33.0455C65.9473 33.1669 65.7298 33.2327 65.507 33.235V33.2387Z" fill="#232323"/>
<path d="M38.4553 46.8455C41.2748 46.8659 44.0368 46.0486 46.3911 44.497C48.7454 42.9455 50.5858 40.7297 51.679 38.1307C52.7721 35.5317 53.0688 32.6665 52.5313 29.8987C51.9938 27.1309 50.6464 24.585 48.6599 22.584C46.6735 20.5831 44.1375 19.2171 41.3736 18.6595C38.6098 18.1019 35.7426 18.3777 33.1357 19.4519C30.5288 20.5261 28.2996 22.3504 26.731 24.6933C25.1624 27.0362 24.3249 29.7922 24.3248 32.6117C24.318 34.4742 24.6781 36.3197 25.3846 38.0429C26.091 39.7662 27.13 41.3334 28.4421 42.6552C29.7543 43.9769 31.3139 45.0272 33.032 45.7462C34.75 46.4652 36.5929 46.8387 38.4553 46.8455Z" fill="#D2D2D2"/>
<path d="M38.4556 39.9648C39.9105 39.975 41.3357 39.5529 42.5505 38.752C43.7652 37.9511 44.7147 36.8075 45.2786 35.4662C45.8425 34.125 45.9954 32.6464 45.7178 31.2182C45.4402 29.7899 44.7447 28.4762 43.7195 27.4438C42.6943 26.4113 41.3856 25.7066 39.9593 25.4189C38.533 25.1313 37.0535 25.2737 35.7082 25.8281C34.363 26.3825 33.2127 27.324 32.4033 28.533C31.5939 29.7421 31.1617 31.1643 31.1617 32.6193C31.1583 33.5805 31.3443 34.533 31.709 35.4224C32.0737 36.3117 32.61 37.1206 33.2873 37.8027C33.9646 38.4848 34.7696 39.0268 35.6564 39.3977C36.5432 39.7687 37.4943 39.9614 38.4556 39.9648Z" fill="#232323"/>
</svg>
