<svg viewBox="0 0 128 26" fill="none" xmlns="http://www.w3.org/2000/svg">
<path d="M11.059 0C10.2417 0 9.45767 0.0983315 8.707 0.294998C7.96377 0.48657 7.26596 0.823751 6.654 1.287C6.036 1.75233 5.49833 2.38233 5.041 3.177C4.583 3.97366 4.233 4.966 3.991 6.154L3.539 8.34H0.795L0 12.123H2.748L2.707 12.316L2.49 13.353L2.385 13.863C2.20833 14.7097 2.04833 15.4807 1.905 16.176L1.557 17.856C1.26967 19.246 1.00733 20.5043 0.77 21.631C0.525087 22.7927 0.284752 23.9554 0.049 25.119H4.982C5.236 23.919 5.479 22.759 5.711 21.639C5.90433 20.7043 6.12033 19.669 6.359 18.533L6.506 17.84L7.687 12.123H12.217L13.012 8.34H8.277L8.426 7.592L8.592 6.76C8.76867 5.89733 9.08867 5.25 9.552 4.818C10.016 4.38733 10.656 4.17133 11.472 4.17C11.9351 4.16997 12.3965 4.22639 12.846 4.338C13.2993 4.45 13.7303 4.60667 14.139 4.808L15.33 0.772999C14.9312 0.600647 14.5184 0.46281 14.096 0.361C13.1014 0.12159 12.082 0.00041859 11.059 0ZM31.668 0.0349998L26.635 0.470997C26.359 1.81566 26.083 3.15566 25.807 4.491C25.527 5.843 25.2403 7.193 24.947 8.541L23.027 17.855C22.729 19.2457 22.464 20.5043 22.232 21.631C21.992 22.7943 21.7493 23.957 21.504 25.119H26.454C26.9453 22.6897 27.447 20.263 27.959 17.839L29.896 8.525C30.216 6.97833 30.522 5.507 30.814 4.111C31.1073 2.71633 31.392 1.35767 31.668 0.0349998ZM20.758 0.152C19.8613 0.152 19.102 0.347998 18.48 0.739998C17.86 1.132 17.4577 1.77667 17.273 2.674C17.079 3.66 17.206 4.419 17.654 4.951C18.1027 5.483 18.77 5.74933 19.656 5.75C20.564 5.75 21.3233 5.57933 21.934 5.238C22.5447 4.89667 22.947 4.238 23.141 3.262C23.3143 2.41 23.1847 1.67866 22.752 1.068C22.32 0.457997 21.6553 0.152667 20.758 0.152ZM124.391 2.002L119.326 2.892L118.654 6.121L118.234 8.125L118.189 8.34H115.518L114.723 12.123H117.403L117.383 12.225L117.323 12.517C117.146 13.387 116.977 14.1997 116.816 14.955C116.656 15.7123 116.505 16.4413 116.363 17.142C116.219 17.842 116.069 18.5563 115.914 19.285C115.617 20.709 115.651 21.886 116.016 22.816C116.357 23.7209 117.028 24.4628 117.895 24.892C118.783 25.3453 119.867 25.5727 121.146 25.574C121.579 25.5723 122.01 25.5355 122.437 25.464C122.876 25.395 123.311 25.2995 123.738 25.178C124.141 25.06 124.458 24.9227 124.689 24.766L125.219 20.646C124.789 20.95 124.361 21.1637 123.936 21.287C123.558 21.4029 123.165 21.4649 122.77 21.471C121.963 21.471 121.414 21.191 121.121 20.631C120.83 20.071 120.8 19.2527 121.031 18.176L122.281 12.123H127.205L128 8.34H123.068L123.102 8.182L123.309 7.199L123.373 6.885C123.544 6.061 123.712 5.25933 123.877 4.48C124.042 3.70133 124.214 2.87533 124.391 2.002ZM40.22 7.887C39.6567 7.887 39.08 7.92033 38.49 7.987C37.9095 8.05255 37.332 8.1423 36.759 8.256C36.2207 8.36254 35.6851 8.48292 35.153 8.617C34.6457 8.74567 34.1933 8.87733 33.796 9.012L33.016 13.418C33.5348 13.1914 34.0629 12.9868 34.599 12.805C35.1123 12.631 35.6117 12.485 36.097 12.367C36.5581 12.2533 37.0247 12.1632 37.495 12.097C37.9157 12.037 38.3383 12.0067 38.763 12.006C39.5343 12.006 40.1683 12.1093 40.665 12.316C41.1617 12.524 41.5067 12.8157 41.7 13.191C41.8933 13.5663 41.935 14.006 41.825 14.51L36.644 15.334C35.9593 15.434 35.2997 15.5823 34.665 15.779C34.0518 15.9645 33.467 16.2334 32.927 16.578C32.3993 16.9178 31.9434 17.3577 31.585 17.873C31.215 18.3997 30.9473 19.0553 30.782 19.84C30.562 20.8593 30.59 21.8007 30.866 22.664C31.1201 23.4974 31.6368 24.2263 32.339 24.742C33.0457 25.262 33.9233 25.5223 34.972 25.523C35.634 25.523 36.2517 25.4247 36.825 25.228C37.4032 25.0296 37.9436 24.7344 38.423 24.355C38.9451 23.9357 39.4003 23.4393 39.773 22.883H40.153L39.936 25.119H44.208C44.44 24.043 44.653 23.0397 44.847 22.109L45.401 19.453L45.698 18.041L46.079 16.234C46.1997 15.6567 46.3157 15.0877 46.427 14.527C46.7257 13.1603 46.676 11.9807 46.278 10.988C45.8807 9.996 45.1687 9.231 44.142 8.693C43.1153 8.155 41.808 7.88633 40.22 7.887ZM61.33 7.887C60.5802 7.88501 59.8364 8.02129 59.136 8.289C58.4381 8.55635 57.7846 8.9279 57.198 9.391C56.6073 9.85567 56.108 10.3737 55.7 10.945H55.286L55.634 8.088L51.462 8.34C51.1849 9.6942 50.9035 11.0475 50.618 12.4C50.3526 13.6573 50.0936 14.916 49.841 16.176L49.493 17.856C49.195 19.246 48.93 20.5043 48.698 21.631C48.458 22.7943 48.2153 23.957 47.97 25.119H52.919C53.1623 23.919 53.4 22.7647 53.632 21.656L54.376 18.109L55.089 14.629C55.4423 14.2137 55.7977 13.843 56.155 13.517C56.4919 13.2069 56.8714 12.9466 57.282 12.744C57.671 12.5536 58.0989 12.456 58.532 12.459C59.3053 12.459 59.7987 12.7643 60.012 13.375C60.228 13.985 60.2307 14.795 60.02 15.805L59.542 18.125C59.2958 19.3013 59.0528 20.4783 58.813 21.656L58.101 25.119H63.034L63.77 21.631C63.77 21.631 64.56 17.861 64.946 15.973L65.263 14.469L65.298 14.429C65.534 14.169 65.773 13.9263 66.015 13.701L66.196 13.535C66.538 13.2255 66.9197 12.9628 67.331 12.754C67.7187 12.5587 68.1469 12.4577 68.581 12.459C69.353 12.459 69.8463 12.7643 70.061 13.375C70.2763 13.985 70.279 14.795 70.069 15.805L69.591 18.125C69.355 19.305 69.115 20.4847 68.871 21.664C68.6443 22.7567 68.4037 23.9083 68.149 25.119H73.099C73.341 23.919 73.5787 22.759 73.812 21.639C74.0433 20.5177 74.308 19.2563 74.606 17.855C74.7393 17.205 74.8693 16.5777 74.996 15.973L75.335 14.359C75.755 12.399 75.6223 10.83 74.937 9.652C74.2537 8.47533 73.067 7.887 71.377 7.887C70.6243 7.88512 69.878 8.02489 69.177 8.299C67.7727 8.85202 66.5552 9.7938 65.667 11.014H65.304L65.278 10.881C65.1047 10.037 64.7513 9.36367 64.218 8.861C63.528 8.21167 62.565 7.887 61.329 7.887M86.678 7.887C85.1327 7.887 83.7583 8.22033 82.555 8.887C81.3517 9.55366 80.353 10.4923 79.559 11.703C78.765 12.9137 78.2023 14.3317 77.871 15.957C77.473 17.9297 77.5473 19.6333 78.094 21.068C78.6131 22.4707 79.6093 23.646 80.908 24.388C82.238 25.168 83.8963 25.5577 85.883 25.557C86.6657 25.557 87.3967 25.507 88.076 25.407C88.6834 25.3202 89.2839 25.1906 89.873 25.019C90.3917 24.8617 90.8 24.6933 91.098 24.514L91.76 20.244C91.2659 20.5198 90.744 20.7424 90.203 20.908C89.648 21.0801 89.0807 21.2094 88.506 21.295C87.938 21.379 87.4223 21.4207 86.959 21.42C85.899 21.42 85.005 21.2433 84.277 20.89C83.5483 20.5367 83.027 20.0043 82.713 19.293C82.503 18.8177 82.4097 18.2597 82.433 17.619L82.435 17.553H92.57L92.652 17.324C92.732 17.0927 92.807 16.855 92.877 16.611C92.971 16.287 93.062 15.9403 93.15 15.571C93.5253 14.035 93.5197 12.6897 93.133 11.535C92.7477 10.3797 92.0087 9.48266 90.916 8.844C89.8227 8.204 88.4107 7.885 86.68 7.887M107.777 7.887C107.006 7.8837 106.24 8.01989 105.517 8.289C104.805 8.55269 104.138 8.92437 103.539 9.391C102.964 9.83332 102.456 10.3568 102.031 10.945H101.619L101.967 8.088L97.795 8.34C97.5077 9.74 97.2257 11.096 96.949 12.408C96.6852 13.663 96.4262 14.919 96.172 16.176L95.824 17.856C95.319 20.278 94.301 25.119 94.301 25.119H99.25L99.963 21.664L100.709 18.109L101.419 14.629C101.772 14.2137 102.134 13.843 102.504 13.517C102.873 13.1923 103.259 12.9347 103.662 12.744C104.065 12.554 104.504 12.459 104.979 12.459C105.851 12.459 106.403 12.7643 106.635 13.375C106.866 13.985 106.871 14.795 106.65 15.805L106.17 18.125C105.932 19.302 105.45 21.656 105.45 21.656L104.73 25.119H109.68L110.416 21.631C110.416 21.631 110.911 19.246 111.188 17.855C111.331 17.205 111.465 16.5777 111.592 15.973L111.932 14.359C112.34 12.399 112.197 10.83 111.502 9.652C110.807 8.47533 109.565 7.887 107.777 7.887ZM19.077 8.307L16.662 8.4L16.359 9.482L16.352 9.529C16.3421 9.60374 16.3521 9.67976 16.3809 9.74944C16.4097 9.81912 16.4563 9.88001 16.516 9.926L18.188 11.09L16.232 11.22C16.079 11.23 15.95 11.356 15.912 11.527L15.764 12.209L15.756 12.256C15.7465 12.3308 15.7569 12.4067 15.786 12.4762C15.8152 12.5457 15.8621 12.6063 15.922 12.652L17.592 13.816L15.639 13.947C15.485 13.957 15.354 14.082 15.316 14.254L15.168 14.935L15.16 14.982C15.1504 15.0569 15.1606 15.1331 15.1898 15.2028C15.2189 15.2724 15.2659 15.3332 15.326 15.379L16.996 16.543L15.043 16.673C14.89 16.684 14.76 16.809 14.723 16.98L14.573 17.662L14.564 17.709C14.5545 17.7838 14.5649 17.8597 14.594 17.9292C14.6232 17.9987 14.6701 18.0593 14.73 18.105L16.4 19.269L14.447 19.4C14.294 19.41 14.164 19.535 14.127 19.707L13.979 20.389L13.971 20.435C13.9611 20.5097 13.9711 20.5858 13.9999 20.6554C14.0287 20.7251 14.0753 20.786 14.135 20.832L15.807 21.996L13.854 22.126C13.7 22.137 13.569 22.262 13.531 22.433L12.855 25.119H15.043L15.385 23.659L18.125 23.416C18.278 23.406 18.408 23.281 18.445 23.109L18.594 22.428L18.602 22.381C18.6123 22.3063 18.6024 22.2302 18.5732 22.1607C18.544 22.0912 18.4966 22.0309 18.436 21.986L16.766 20.82L18.719 20.69C18.872 20.679 19.004 20.554 19.041 20.383L19.189 19.701L19.197 19.654C19.2071 19.5795 19.1971 19.5036 19.1679 19.4343C19.1387 19.365 19.0914 19.3048 19.031 19.26L17.361 18.094L19.314 17.963C19.468 17.953 19.597 17.828 19.634 17.656L19.785 16.975L19.791 16.928C19.8015 16.8535 19.7919 16.7775 19.763 16.7081C19.7342 16.6386 19.6872 16.5781 19.627 16.533L17.955 15.367L19.91 15.237C20.064 15.226 20.193 15.101 20.23 14.93L20.379 14.248L20.387 14.201C20.3971 14.1265 20.3871 14.0506 20.3579 13.9813C20.3287 13.912 20.2814 13.8518 20.221 13.807L18.551 12.641L20.504 12.51C20.657 12.5 20.789 12.375 20.826 12.203L20.975 11.521L20.982 11.474C20.9921 11.3995 20.9821 11.3236 20.9529 11.2543C20.9237 11.185 20.8764 11.1248 20.816 11.08L18.604 9.523L19.077 8.307ZM86.779 11.433C87.6723 11.433 88.3067 11.803 88.682 12.543C88.978 13.127 89.0853 13.7877 89.004 14.525L88.984 14.67L83.002 14.797L83.052 14.65C83.232 14.134 83.4477 13.684 83.699 13.3C84.119 12.6607 84.5963 12.1897 85.131 11.887C85.6309 11.5935 86.1993 11.437 86.779 11.433ZM41.213 16.779L40.65 19.471C40.3598 19.8979 40.0182 20.2875 39.633 20.631C39.263 20.9557 38.8763 21.205 38.473 21.379C38.0703 21.5523 37.6703 21.639 37.273 21.639C36.7217 21.639 36.2857 21.4683 35.965 21.127C35.645 20.785 35.54 20.3057 35.65 19.689C35.728 19.297 35.883 18.9773 36.115 18.73C36.3595 18.4744 36.6596 18.2787 36.992 18.158C37.3453 18.0247 37.7373 17.9077 38.168 17.807C38.6951 17.6936 39.2193 17.5669 39.74 17.427C40.1267 17.3203 40.43 17.2137 40.65 17.107C40.87 17.0003 41.0577 16.891 41.213 16.779Z" fill="black"/>
</svg>
