<svg width="143" height="26" viewBox="0 0 143 26" fill="none" xmlns="http://www.w3.org/2000/svg">
<g clip-path="url(#clip0_5_2)">
<path d="M3.11695 7.87731H8.46716L5.35021 25.4856H0L3.11695 7.87731ZM3.42865 3.19345C3.71911 1.49042 5.35021 0.00110669 7.11536 0.00110669C8.88052 0.00110669 10.077 1.44281 9.81788 3.19234C9.55751 4.94297 7.89628 6.38468 6.0775 6.38468C4.25984 6.38468 3.14711 4.83668 3.42865 3.19234V3.19345ZM28.2056 14.6728L26.284 25.4845H20.9853L22.7504 15.4446C23.1504 13.1768 21.9203 12.2533 20.2054 12.2533C18.4403 12.2533 16.7388 13.2643 16.3098 15.6505L14.5447 25.4833H9.24584L12.3628 7.87731H17.713L17.4527 9.52389C18.6481 8.18514 20.6735 7.34249 22.699 7.36242C26.2841 7.39564 29.0379 9.98781 28.2056 14.6728ZM49.0859 16.6803C49.0132 17.09 48.8267 18.07 48.5161 18.7908H35.788C36.0997 20.7474 37.762 21.2623 39.4244 21.2623C40.9304 21.2623 42.1246 20.8504 43.1636 19.8726L46.904 22.91C44.826 24.9696 42.385 25.9993 39.1127 25.9993C32.9828 25.9993 29.7753 21.6255 30.6444 16.3714C31.0564 13.8677 32.3543 11.5914 34.3056 9.94983C36.2569 8.30842 38.7341 7.40922 41.2935 7.41335C46.3845 7.42111 50.0511 11.321 49.0859 16.6803ZM44.0473 14.7758C43.8921 12.8192 42.49 12.0629 40.8276 12.0474C39.9184 12.0341 39.0251 12.2856 38.2585 12.7705C37.4921 13.2555 36.8859 13.9527 36.5152 14.7758H44.0473ZM64.3578 7.51634L63.3188 13.488C61.2409 13.179 57.8748 13.9021 57.2413 17.5041L55.8393 25.4845H50.5405L53.6574 7.87621H59.0076L58.4368 11.0686C59.5271 8.6491 61.8642 7.51634 64.3578 7.51634ZM71.5782 19.2028C71.2866 20.794 72.6172 20.9024 75.0057 20.6965L74.1746 25.4845C67.7865 26.2042 65.4225 24.0981 66.2794 19.2028L67.3709 12.9731H64.5131L65.4482 7.87621H68.2534L68.8769 4.52995L74.4862 2.93434L73.6037 7.87621H77.2915L76.3564 12.9731H72.7211L71.5782 19.2028ZM80.6676 7.87621H86.019L82.902 25.4845H77.5507L80.6676 7.87621ZM80.9804 3.19234C81.2687 1.49818 82.902 0 84.6671 0C86.4324 0 87.6277 1.4417 87.3685 3.19123C87.1094 4.94076 85.447 6.38357 83.6293 6.38357C81.8116 6.38357 80.6978 4.84442 80.9793 3.19123L80.9804 3.19234ZM108.095 7.87621L104.978 25.4845H99.6264L99.8354 24.2996C98.3162 25.4845 96.4173 26.0214 94.484 25.9993C88.7192 25.9329 86.5641 21.0608 87.4725 16.2684C88.3305 11.7429 91.9401 7.41335 97.4452 7.41335C99.7824 7.41335 101.445 8.34016 102.433 9.78185L102.745 7.92824H108.095V7.87621ZM101.237 16.7324C101.71 14.0561 100.25 12.4172 97.8101 12.4073C95.3095 12.3962 93.2518 14.231 92.8748 16.6814C92.4685 19.3168 93.8099 20.9268 96.3031 20.9534C98.6932 20.9788 100.775 19.3589 101.237 16.7324ZM134.066 8.28812H124.82L133.754 17.1443L124.82 25.9993H134.066L143 17.1454L134.066 8.28812ZM120.093 8.28812H110.847L119.781 17.1443L110.847 25.9993H120.093L129.028 17.1443L120.093 8.28812Z" fill="url(#paint0_linear_5_2)"/>
</g>
<defs>
<linearGradient id="paint0_linear_5_2" x1="0" y1="13.0007" x2="143" y2="13.0007" gradientUnits="userSpaceOnUse">
<stop stop-color="#9553E9"/>
<stop offset="1" stop-color="#6D74ED"/>
</linearGradient>
<clipPath id="clip0_5_2">
<rect width="143" height="26" fill="white"/>
</clipPath>
</defs>
</svg>
