<svg viewBox="0 0 176 51" fill="none" xmlns="http://www.w3.org/2000/svg">
<g clip-path="url(#clip0_202_8)">
<path fill-rule="evenodd" clip-rule="evenodd" d="M67.057 11.7231V34.6701H75.419V38.6281H62.605V11.7231H67.057ZM91.135 23.1381V20.7181H95.354V38.6281H91.134V36.2061C90.567 37.1031 89.76 37.8081 88.714 38.3201C87.67 38.8321 86.618 39.0881 85.56 39.0881C84.192 39.0881 82.94 38.8381 81.805 38.3391C80.7001 37.8614 79.7051 37.1616 78.882 36.2831C78.0683 35.411 77.4252 34.3941 76.986 33.2851C76.5297 32.1356 76.2995 30.9089 76.308 29.6721C76.308 28.4171 76.534 27.2191 76.986 26.0781C77.4223 24.9623 78.0656 23.939 78.882 23.0621C79.7052 22.1835 80.7001 21.4834 81.805 21.0051C82.94 20.5051 84.192 20.2551 85.56 20.2551C86.618 20.2551 87.67 20.5121 88.715 21.0251C89.76 21.5371 90.567 22.2421 91.135 23.1381ZM90.747 31.8631C91.0067 31.1624 91.1382 30.4205 91.135 29.6731C91.135 28.9031 91.005 28.1731 90.747 27.4811C90.5046 26.8155 90.137 26.2025 89.664 25.6751C89.1907 25.1566 88.618 24.7383 87.98 24.4451C87.321 24.1381 86.592 23.9841 85.792 23.9841C84.992 23.9841 84.269 24.1381 83.624 24.4451C82.979 24.7531 82.424 25.1631 81.96 25.6751C81.4881 26.1999 81.1263 26.814 80.896 27.4811C80.6483 28.1849 80.5238 28.9261 80.528 29.6721C80.528 30.4411 80.65 31.1721 80.896 31.8621C81.126 32.5297 81.4879 33.1442 81.96 33.6691C82.4283 34.1847 82.9938 34.6027 83.624 34.8991C84.269 35.2071 84.992 35.3601 85.792 35.3601C86.592 35.3601 87.322 35.2071 87.98 34.9001C88.6182 34.6073 89.1909 34.1889 89.664 33.6701C90.1372 33.1426 90.5048 32.5292 90.747 31.8631ZM98.683 38.6271V20.7171H110.142V24.8391H102.902V38.6271H98.683ZM125.433 23.1381V20.7181H129.652V38.6281H125.432V36.2061C124.864 37.1031 124.058 37.8081 123.012 38.3201C121.968 38.8321 120.916 39.0881 119.858 39.0881C118.489 39.0881 117.238 38.8381 116.103 38.3391C114.998 37.8614 114.003 37.1616 113.18 36.2831C112.366 35.411 111.723 34.3941 111.284 33.2851C110.828 32.1356 110.597 30.9089 110.606 29.6721C110.606 28.4171 110.831 27.2191 111.284 26.0781C111.72 24.9623 112.364 23.939 113.18 23.0621C114.003 22.1835 114.998 21.4834 116.103 21.0051C117.238 20.5051 118.489 20.2551 119.858 20.2551C120.916 20.2551 121.968 20.5121 123.013 21.0251C124.058 21.5371 124.864 22.2421 125.433 23.1381ZM125.045 31.8631C125.304 31.1623 125.435 30.4205 125.432 29.6731C125.432 28.9031 125.302 28.1731 125.045 27.4811C124.802 26.8154 124.434 26.2024 123.961 25.6751C123.488 25.1566 122.915 24.7383 122.277 24.4451C121.619 24.1381 120.89 23.9841 120.09 23.9841C119.29 23.9841 118.567 24.1381 117.922 24.4451C117.277 24.7531 116.722 25.1631 116.258 25.6751C115.786 26.1998 115.424 26.814 115.193 27.4811C114.945 28.1849 114.821 28.9261 114.825 29.6721C114.825 30.4411 114.947 31.1721 115.193 31.8621C115.423 32.5298 115.786 33.1443 116.258 33.6691C116.726 34.1847 117.292 34.6027 117.922 34.8991C118.567 35.2071 119.29 35.3601 120.09 35.3601C120.89 35.3601 121.62 35.2071 122.277 34.9001C122.915 34.6073 123.488 34.1889 123.961 33.6701C124.435 33.1427 124.803 32.5293 125.045 31.8631ZM146.568 20.7171H150.842L143.916 38.6271H138.614L131.688 20.7171H135.962L141.265 34.4321L146.568 20.7171ZM160.044 20.2571C165.79 20.2571 169.708 25.3121 168.972 31.2291H154.974C154.974 32.7741 156.545 35.7611 160.276 35.7611C163.486 35.7611 165.636 32.9581 165.638 32.9561L168.488 35.1461C165.94 37.8481 163.853 39.0891 160.585 39.0891C154.745 39.0891 150.788 35.4211 150.788 29.6731C150.788 24.4731 154.878 20.2571 160.044 20.2571ZM154.985 28.1161H165.097C165.066 27.7711 164.518 23.5841 160.011 23.5841C155.504 23.5841 155.018 27.7711 154.985 28.1161ZM171.72 38.6271V11.7231H175.94V38.6271H171.72ZM49.764 11.5131C49.7824 11.5809 49.7918 11.6509 49.792 11.7211V22.6451C49.7918 22.7856 49.7544 22.9236 49.6836 23.0449C49.6128 23.1663 49.5112 23.2668 49.389 23.3361L40.155 28.6151V39.0781C40.1546 39.2185 40.1171 39.3562 40.0464 39.4774C39.9756 39.5986 39.874 39.6989 39.752 39.7681L20.478 50.7871C20.434 50.8131 20.385 50.8281 20.338 50.8451C20.319 50.8511 20.302 50.8621 20.284 50.8671C20.149 50.9026 20.007 50.9026 19.872 50.8671C19.85 50.8611 19.83 50.8491 19.809 50.8411C19.764 50.8261 19.719 50.8111 19.677 50.7871L0.402 39.7701C0.279859 39.7006 0.178321 39.5999 0.107712 39.4783C0.0371018 39.3568 -6.16877e-05 39.2187 7.68626e-08 39.0781V6.30614C0.000158818 6.23588 0.00957315 6.16595 0.0280001 6.09814C0.0340001 6.07414 0.0480001 6.05314 0.0560001 6.03114C0.0720001 5.98914 0.0860001 5.94614 0.108 5.90714C0.123 5.88114 0.145 5.86014 0.162 5.83714C0.186 5.80514 0.206 5.77114 0.234 5.74314C0.257 5.72014 0.287 5.70314 0.313 5.68314C0.342 5.66114 0.368 5.63514 0.401 5.61614L0.402 5.61514L10.04 0.106145C10.1619 0.0368946 10.2998 0.000488281 10.44 0.000488281C10.5802 0.000488281 10.7181 0.0368946 10.84 0.106145L20.478 5.61514H20.48C20.512 5.63514 20.538 5.66114 20.568 5.68314C20.594 5.70314 20.623 5.72014 20.646 5.74314C20.674 5.77114 20.694 5.80514 20.718 5.83614C20.736 5.86014 20.758 5.88114 20.773 5.90714C20.795 5.94614 20.809 5.98914 20.825 6.03114C20.833 6.05314 20.846 6.07414 20.853 6.09814C20.8711 6.16599 20.8802 6.23593 20.88 6.30614V26.7751L28.912 22.1841V11.7211C28.9118 11.6509 28.9209 11.581 28.939 11.5131C28.946 11.4891 28.959 11.4691 28.968 11.4461C28.983 11.4041 28.997 11.3611 29.019 11.3221C29.034 11.2961 29.056 11.2751 29.074 11.2521C29.098 11.2201 29.118 11.1861 29.146 11.1591C29.169 11.1361 29.198 11.1191 29.224 11.0991C29.254 11.0761 29.28 11.0491 29.313 11.0311V11.0301L38.951 5.52114C39.073 5.45152 39.211 5.4149 39.3515 5.4149C39.492 5.4149 39.63 5.45152 39.752 5.52114L49.389 11.0301C49.423 11.0501 49.45 11.0761 49.48 11.0981C49.505 11.1181 49.535 11.1361 49.558 11.1581C49.586 11.1861 49.606 11.2201 49.629 11.2511C49.647 11.2751 49.669 11.2961 49.684 11.3221C49.707 11.3611 49.72 11.4041 49.736 11.4461C49.745 11.4691 49.758 11.4891 49.764 11.5131ZM48.186 22.1841V13.1001L44.813 15.0281L40.155 17.6911V26.7751L48.186 22.1841ZM38.549 38.6171V29.5271L33.965 32.1251L20.88 39.5401V48.7151L38.549 38.6151V38.6171ZM1.606 7.68514V38.6171L19.274 48.7171V39.5431L10.044 34.3571L10.042 34.3541L10.038 34.3531C10.006 34.3351 9.981 34.3091 9.952 34.2871C9.926 34.2671 9.898 34.2511 9.875 34.2291L9.873 34.2261C9.847 34.2011 9.829 34.1701 9.807 34.1421C9.787 34.1161 9.763 34.0931 9.747 34.0651L9.746 34.0621C9.728 34.0321 9.717 33.9961 9.704 33.9621C9.691 33.9331 9.674 33.9051 9.666 33.8731C9.655 33.8351 9.654 33.7941 9.649 33.7551C9.646 33.7251 9.637 33.6961 9.637 33.6651V12.2751L4.98 9.61314L1.606 7.68514ZM10.44 1.71714L2.413 6.30714L10.44 10.8951L18.468 6.30614L10.44 1.71714ZM14.616 30.3551L19.274 27.6931V7.68514L15.902 9.61314L11.243 12.2761V32.2831L14.616 30.3551ZM39.352 7.13314L31.324 11.7211L39.352 16.3101L47.379 11.7211L39.352 7.13314ZM38.549 17.6911L33.89 15.0281L30.518 13.1001V22.1841L35.176 24.8471L38.549 26.7751V17.6911ZM20.076 38.1611L31.851 31.4871L37.737 28.1511L29.715 23.5651L20.478 28.8451L12.06 33.6571L20.076 38.1611Z" fill="#FF2D20"/>
</g>
</svg>
