<svg viewBox="0 0 89 19" fill="none" xmlns="http://www.w3.org/2000/svg">
<path d="M26.9668 13.8986V5.43848H29.0136V12.0857H32.7701V13.8986H26.9668ZM33.8948 13.8986V12.1704H35.3154V7.16678H33.8948V5.43848H38.7951V7.16678H37.3625V12.1704H38.7951V13.8986H33.8948ZM42.8607 13.8986L39.4894 5.43848H41.6206L43.2461 9.75316C43.3422 10.0027 43.423 10.2203 43.4868 10.4058C43.559 10.5913 43.6192 10.7641 43.6674 10.9255C43.724 11.0868 43.7722 11.2518 43.8117 11.421C43.8599 11.5824 43.9125 11.7673 43.9683 11.977H43.5952C43.7051 11.5062 43.8418 11.0422 44.0046 10.5871C44.0851 10.3532 44.1852 10.0752 44.3055 9.75316L45.8708 5.43848H47.9658L44.5702 13.8986H42.8607ZM48.8316 13.8986V5.43848H54.7079V7.19093H50.8189V12.1462H54.8283V13.8986H48.8316ZM49.7946 10.43V8.76213H54.1655V10.43H49.7946ZM57.8685 13.8986L55.3399 5.43848H57.4229L58.6872 9.88612C58.7431 10.0874 58.7913 10.2928 58.8315 10.5025C58.8797 10.7037 58.916 10.8971 58.9399 11.0826C58.9718 11.2681 58.9958 11.441 59.0121 11.6023C59.0284 11.7552 59.044 11.8845 59.0603 11.9891H58.7956C58.8435 11.6911 58.8841 11.4253 58.916 11.1914C58.9562 10.9575 59.0001 10.74 59.0483 10.5388C59.0966 10.329 59.1568 10.1115 59.2289 9.88612L60.4813 6.53829H62.1187L63.3467 9.88612C63.4432 10.152 63.5229 10.4016 63.5875 10.6354C63.652 10.8693 63.7002 11.0947 63.7321 11.3123C63.7724 11.5219 63.8043 11.731 63.8282 11.9407L63.5875 11.977C63.6038 11.8319 63.6157 11.699 63.6237 11.5781C63.6313 11.4494 63.64 11.3286 63.6477 11.2156C63.664 11.0947 63.6796 10.9696 63.6959 10.8409C63.7122 10.7122 63.7361 10.5708 63.768 10.4179C63.7999 10.2565 63.8445 10.0752 63.9007 9.87401L65.1527 5.43848H67.1875L64.6592 13.8986H63.094L61.0951 9.02801L61.3239 9.05219L59.4816 13.8986H57.8685ZM67.8996 13.8986V12.1704H69.3206V7.16678H67.8996V5.43848H72.8002V7.16678H71.3673V12.1704H72.8002V13.8986H67.8996ZM74.5062 13.8986V5.43848H78.2991C78.8372 5.43848 79.3223 5.55512 79.7559 5.78898C80.1979 6.02284 80.5427 6.34492 80.7915 6.75583C81.0406 7.15891 81.1646 7.61819 81.1646 8.13363C81.1646 8.66543 81.0406 9.14465 80.7915 9.57187C80.5453 9.98848 80.1914 10.3308 79.7679 10.5629C79.3346 10.8046 78.8451 10.9255 78.2991 10.9255H76.4568V13.8986H74.5062ZM79.178 13.8986L77.0348 10.0795L79.1298 9.77735L81.5137 13.8986H79.178ZM76.4568 9.35433H78.1185C78.3274 9.35433 78.5079 9.3102 78.6602 9.22137C78.8208 9.12471 78.9412 8.99175 79.0214 8.82253C79.1098 8.65335 79.1541 8.45995 79.1541 8.24241C79.1541 8.02486 79.1058 7.83574 79.0094 7.67439C78.9126 7.50456 78.765 7.36935 78.5881 7.28763C78.4115 7.1988 78.195 7.15467 77.938 7.15467H76.4568V9.35433ZM82.7197 13.8986V5.43848H88.5952V7.19093H84.7062V12.1462H88.7156V13.8986H82.7197ZM83.683 10.43V8.76213H88.0536V10.43H83.683Z" fill="#030776"/>
<path fill-rule="evenodd" clip-rule="evenodd" d="M20.9503 16.7427C20.5409 17.3639 20.2308 18.1289 19.3989 18.1289C17.9986 18.1289 17.9227 15.9613 16.5212 15.9613C15.1203 15.9613 15.1962 18.1289 13.7959 18.1289C12.3956 18.1289 12.3197 15.9613 10.9182 15.9613C9.51733 15.9613 9.59318 18.1289 8.19228 18.1289C6.79201 18.1289 6.71615 15.9613 5.31464 15.9613C3.91317 15.9613 3.99022 18.1289 2.58872 18.1289C2.14865 18.1289 1.83921 17.915 1.57854 17.6213C0.538498 15.7963 -0.005822 13.7292 4.69622e-05 11.6267C4.69622e-05 5.20482 4.9414 0 11.0368 0C17.1335 0 22.0742 5.20543 22.0742 11.6267C22.0742 13.4619 21.6697 15.1981 20.9503 16.7427Z" fill="#FB70A9"/>
<path fill-rule="evenodd" clip-rule="evenodd" d="M20.9503 16.7427C20.5409 17.3639 20.2308 18.1289 19.3989 18.1289C17.9986 18.1289 17.9227 15.9613 16.5212 15.9613C15.1203 15.9613 15.1962 18.1289 13.7959 18.1289C12.3956 18.1289 12.3197 15.9613 10.9182 15.9613C9.51733 15.9613 9.59318 18.1289 8.19228 18.1289C6.79201 18.1289 6.71615 15.9613 5.31464 15.9613C3.91317 15.9613 3.99022 18.1289 2.58872 18.1289C2.14865 18.1289 1.83921 17.915 1.57854 17.6213C0.538498 15.7963 -0.005822 13.7292 4.69622e-05 11.6267C4.69622e-05 5.20482 4.9414 0 11.0368 0C17.1335 0 22.0742 5.20543 22.0742 11.6267C22.0742 13.4619 21.6697 15.1981 20.9503 16.7427Z" fill="#FB70A9"/>
<path fill-rule="evenodd" clip-rule="evenodd" d="M18.5625 17.8975C21.4546 13.5786 21.5298 8.78774 18.7864 3.5249C20.8998 5.69708 22.0802 8.61465 22.0741 11.6509C22.0741 13.4795 21.6557 15.2102 20.9098 16.7475C20.4853 17.3664 20.1632 18.129 19.3006 18.129C19.0056 18.129 18.7672 18.0395 18.5625 17.8975Z" fill="#E24CA6"/>
<path fill-rule="evenodd" clip-rule="evenodd" d="M10.4449 14.5261C14.2833 14.5261 15.8992 12.2914 15.8992 9.11763C15.8992 5.94267 13.458 3.02148 10.4449 3.02148C7.433 3.02148 4.99121 5.94325 4.99121 9.11705C4.99121 12.2914 6.60643 14.5261 10.4449 14.5261Z" fill="white"/>
<path d="M8.97913 9.29688C10.1085 9.29688 11.0242 8.28166 11.0242 7.03077C11.0242 5.77925 10.1091 4.76465 8.97913 4.76465C7.84977 4.76465 6.93408 5.77925 6.93408 7.03077C6.93408 8.28166 7.84916 9.29688 8.97913 9.29688Z" fill="#030776"/>
<path d="M8.63914 7.55341C9.20324 7.55341 9.66139 7.08507 9.66139 6.50795C9.66139 5.92964 9.20385 5.46191 8.63856 5.46191C8.07388 5.46191 7.61572 5.92964 7.61572 6.50737C7.61572 7.08507 8.07326 7.55341 8.63914 7.55341Z" fill="white"/>
</svg>
