<svg  viewBox="0 0 512 352" fill="none" xmlns="http://www.w3.org/2000/svg">
<path d="M511.789 248.049C510.319 236.129 504.279 225.789 493.789 217.279C493.659 217.121 493.515 216.973 493.359 216.839L492.829 216.459L492.659 216.339L487.089 212.339L486.899 212.199L486.189 211.699C485.929 211.547 485.65 211.43 485.359 211.349C467.739 200.859 438.569 193.509 393.939 209.259C383.289 191.339 382.079 176.979 389.209 154.979C390.479 151.149 389.299 148.619 385.499 146.979C377.859 143.729 367.399 145.389 359.979 147.349C356.519 148.249 354.439 150.209 353.779 153.179C349.079 175.179 335.419 195.279 322.209 214.679L321.429 215.819C313.289 198.559 314.979 185.189 320.649 168.439C321.779 165.099 320.889 162.879 317.759 161.219C309.019 156.709 295.909 159.809 290.689 161.349C284.069 163.279 276.969 181.169 269.039 202.589C267.039 207.979 265.319 212.589 264.289 214.739C261.839 219.739 259.499 225.439 257.019 231.489C251.419 245.179 245.109 260.589 236.089 270.269C232.809 263.019 237.969 251.589 242.979 240.499C248.909 227.389 254.509 214.999 248.059 207.089C247.039 205.839 245.774 204.81 244.341 204.067C242.908 203.324 241.339 202.883 239.729 202.769C237.629 202.609 235.52 202.952 233.579 203.769C234.249 198.119 234.279 193.659 232.629 188.269C230.269 180.579 224.139 176.269 215.699 176.499C196.479 177.059 180.219 191.379 169.949 203.299C163.109 211.299 147.949 217.399 134.639 222.749C129.379 224.979 124.379 226.979 120.209 228.979C113.559 223.359 105.109 217.689 96.209 211.699C71.209 194.919 42.879 175.889 41.899 150.089C40.499 111.979 83.899 84.9493 121.779 65.6593C150.489 51.0593 175.449 41.3794 198.089 36.0894C229.889 28.6594 256.749 30.1594 277.909 40.5294C289.489 46.1994 294.909 58.5294 291.469 71.2094C282.469 104.159 245.179 126.739 213.289 136.899C194.079 143.019 177.729 145.579 163.289 144.739C145.189 143.689 130.409 134.609 124.089 130.739C123.076 130.048 122.006 129.446 120.889 128.939L120.599 128.869C120.027 128.727 119.426 128.745 118.864 128.921C118.301 129.098 117.798 129.426 117.409 129.869C116.109 131.419 116.569 133.869 117.039 135.109C123.189 151.179 135.889 161.329 154.779 165.279C160.961 166.517 167.254 167.117 173.559 167.069C217.769 167.069 274.179 141.579 294.899 120.589C309.029 106.289 319.319 91.5893 323.579 66.2393C328.029 39.6894 310.029 21.2394 291.689 12.7394C247.119 -7.83065 196.499 0.299354 161.879 10.7394C121.379 22.9494 79.479 45.1494 46.939 71.6694C6.81903 104.339 -7.68098 134.669 3.81902 161.919C15.629 189.849 44.429 207.319 72.279 224.219C81.279 229.669 89.839 234.859 97.549 240.219C95.229 241.349 92.859 242.499 90.449 243.649C67.069 254.979 40.549 267.729 25.839 288.799C15.159 304.149 13.159 319.429 19.899 334.219C23.499 342.089 29.899 347.429 38.789 350.089C43.4135 351.4 48.2028 352.036 53.009 351.979C70.319 351.979 89.369 344.979 99.739 338.509C118.059 327.009 129.929 311.569 135.029 292.619C139.569 275.759 138.479 259.009 131.879 244.059L154.329 232.739C143.499 268.739 151.799 290.239 160.919 302.099C164.279 306.469 170.339 309.099 177.109 309.219C183.879 309.339 190.109 306.789 193.629 302.449C200.289 294.199 205.209 284.549 209.739 274.899C209.499 281.199 209.799 287.579 211.949 292.989C213.879 297.859 217.059 301.089 221.159 302.329C225.519 303.659 230.629 302.539 235.549 299.179C257.719 284.009 272.879 247.599 285.059 218.329C286.789 214.169 288.449 210.169 290.059 206.429C293.072 217.214 297.264 227.633 302.559 237.499C303.739 239.639 303.639 240.579 302.039 242.339C299.629 244.979 296.269 248.169 292.709 251.549C281.929 261.779 268.509 274.549 266.709 285.779C266.009 290.279 269.109 294.379 273.919 295.309C288.389 298.189 305.819 293.979 320.559 284.059C333.959 275.059 338.999 262.509 335.559 246.869C332.229 231.809 339.829 213.109 358.149 191.249C361.149 203.779 365.149 213.909 370.669 222.779L370.519 222.899C357.179 234.549 338.899 250.499 341.739 269.849C341.977 271.69 342.597 273.46 343.557 275.047C344.518 276.635 345.799 278.005 347.319 279.069C348.943 280.166 350.776 280.915 352.704 281.269C354.631 281.624 356.611 281.576 358.519 281.129C375.989 277.459 389.139 270.069 398.699 258.559C408.259 247.049 404.769 234.289 401.549 224.389C426.549 217.609 448.809 217.779 469.649 224.889C481.349 228.889 489.739 235.459 494.579 244.529C500.669 255.939 497.379 266.469 485.289 274.179C481.579 276.549 479.789 277.999 479.679 279.829C479.655 280.254 479.733 280.678 479.907 281.066C480.081 281.455 480.346 281.795 480.679 282.059C482.079 283.209 486.399 285.209 496.169 279.059C505.169 273.409 510.449 265.719 511.799 256.059C512.071 253.396 512.067 250.712 511.789 248.049ZM112.059 273.109L111.959 274.389C110.399 289.029 102.959 301.789 89.809 312.389C81.549 319.049 72.579 323.139 64.559 323.919C58.959 324.459 54.889 323.699 52.469 321.649C50.659 320.119 49.689 317.829 49.469 314.649C47.829 289.169 87.789 263.849 110.279 255.519C111.884 261.236 112.486 267.187 112.059 273.109ZM214.409 201.249C210.709 222.339 199.919 262.149 182.959 277.599C182.149 278.339 181.469 278.599 181.159 278.529C180.849 278.459 180.609 278.089 180.359 277.529C174.699 264.409 176.789 242.249 185.359 224.839C191.949 211.419 201.359 202.529 211.879 199.839C212.316 199.719 212.766 199.655 213.219 199.649C213.573 199.624 213.925 199.72 214.219 199.919C214.343 200.115 214.424 200.335 214.456 200.564C214.489 200.793 214.473 201.027 214.409 201.249ZM297.899 278.129C294.709 281.459 290.339 281.009 291.369 279.789L307.609 262.549C306.299 268.479 302.429 273.389 297.899 278.129ZM365.269 263.219C363.725 263.98 362.054 264.452 360.339 264.609C359.879 255.539 368.669 245.329 377.339 238.519C379.669 247.979 374.899 257.979 365.269 263.219Z" fill="#CD6799"/>
</svg>
