<svg viewBox="0 0 76 24" fill="none" xmlns="http://www.w3.org/2000/svg">
<path d="M14.775 1.875L12 6.6375L9.225 1.875H0L12 22.5L24 1.875H14.775Z" fill="#42B883"/>
<path d="M14.7748 1.875L11.9998 6.6375L9.2248 1.875H4.7998L11.9998 14.25L19.1998 1.875H14.7748Z" fill="#35495E"/>
<path d="M28.8928 6.81818L31.9155 15.3892H32.0348L35.0575 6.81818H36.3501L32.6115 17H31.3388L27.6001 6.81818H28.8928ZM42.5895 13.8778V9.36364H43.7628V17H42.5895V15.7074H42.5099C42.331 16.0952 42.0526 16.425 41.6747 16.6967C41.2969 16.9652 40.8196 17.0994 40.2429 17.0994C39.7656 17.0994 39.3414 16.995 38.9702 16.7862C38.599 16.5741 38.3073 16.2559 38.0952 15.8317C37.883 15.4041 37.777 14.8655 37.777 14.2159V9.36364H38.9503V14.1364C38.9503 14.6932 39.1061 15.1373 39.4176 15.4688C39.7325 15.8002 40.1335 15.9659 40.6207 15.9659C40.9124 15.9659 41.209 15.8913 41.5107 15.7422C41.8156 15.593 42.0708 15.3643 42.2763 15.0561C42.4851 14.7479 42.5895 14.3551 42.5895 13.8778ZM49.1135 17.1591C48.3777 17.1591 47.743 16.9967 47.2093 16.6719C46.679 16.3438 46.2697 15.8864 45.9814 15.2997C45.6963 14.7098 45.5538 14.0237 45.5538 13.2415C45.5538 12.4593 45.6963 11.7699 45.9814 11.1733C46.2697 10.5734 46.6708 10.1061 47.1845 9.77131C47.7015 9.43324 48.3047 9.2642 48.9941 9.2642C49.3919 9.2642 49.7846 9.33049 50.1724 9.46307C50.5602 9.59564 50.9132 9.81108 51.2314 10.1094C51.5495 10.4044 51.8031 10.7955 51.992 11.2827C52.1809 11.7699 52.2754 12.3698 52.2754 13.0824V13.5795H46.389V12.5653H51.0822C51.0822 12.1345 50.996 11.75 50.8237 11.4119C50.6547 11.0739 50.4127 10.8071 50.0978 10.6115C49.7863 10.416 49.4184 10.3182 48.9941 10.3182C48.5268 10.3182 48.1225 10.4342 47.7811 10.6662C47.443 10.8949 47.1828 11.1932 47.0005 11.5611C46.8182 11.929 46.7271 12.3234 46.7271 12.7443V13.4205C46.7271 13.9972 46.8265 14.486 47.0254 14.8871C47.2276 15.2848 47.5076 15.5881 47.8656 15.7969C48.2235 16.0024 48.6395 16.1051 49.1135 16.1051C49.4217 16.1051 49.7001 16.062 49.9487 15.9759C50.2006 15.8864 50.4177 15.7538 50.6 15.5781C50.7823 15.3991 50.9231 15.1771 51.0225 14.9119L52.1561 15.2301C52.0368 15.6146 51.8362 15.9527 51.5545 16.2443C51.2728 16.5327 50.9248 16.758 50.5105 16.9205C50.0962 17.0795 49.6305 17.1591 49.1135 17.1591ZM54.9153 17.0795C54.67 17.0795 54.4596 16.9917 54.2839 16.8161C54.1083 16.6404 54.0204 16.4299 54.0204 16.1847C54.0204 15.9394 54.1083 15.7289 54.2839 15.5533C54.4596 15.3776 54.67 15.2898 54.9153 15.2898C55.1606 15.2898 55.371 15.3776 55.5467 15.5533C55.7224 15.7289 55.8102 15.9394 55.8102 16.1847C55.8102 16.3471 55.7688 16.4962 55.6859 16.6321C55.6064 16.768 55.4986 16.8774 55.3627 16.9602C55.2302 17.0398 55.081 17.0795 54.9153 17.0795ZM61.9725 6.81818H63.2054V14.0966C63.2054 14.7462 63.0861 15.2981 62.8475 15.7521C62.6088 16.2062 62.2724 16.5509 61.8382 16.7862C61.4041 17.0215 60.892 17.1392 60.302 17.1392C59.7452 17.1392 59.2497 17.0381 58.8155 16.8359C58.3813 16.6304 58.04 16.3388 57.7914 15.9609C57.5428 15.5831 57.4185 15.134 57.4185 14.6136H58.6316C58.6316 14.902 58.7028 15.1539 58.8453 15.3693C58.9912 15.5814 59.19 15.7472 59.4419 15.8665C59.6938 15.9858 59.9805 16.0455 60.302 16.0455C60.6567 16.0455 60.9583 15.9709 61.2069 15.8217C61.4554 15.6726 61.6444 15.4538 61.7736 15.1655C61.9062 14.8738 61.9725 14.5175 61.9725 14.0966V6.81818ZM70.9263 11.0739L69.8723 11.3722C69.806 11.1965 69.7083 11.0258 69.579 10.8601C69.4531 10.6911 69.2807 10.5518 69.062 10.4425C68.8432 10.3331 68.5632 10.2784 68.2218 10.2784C67.7544 10.2784 67.365 10.3861 67.0534 10.6016C66.7452 10.8137 66.5911 11.0838 66.5911 11.4119C66.5911 11.7036 66.6971 11.9339 66.9093 12.103C67.1214 12.272 67.4528 12.4129 67.9036 12.5256L69.0371 12.804C69.7199 12.9697 70.2286 13.2232 70.5634 13.5646C70.8981 13.9027 71.0655 14.3385 71.0655 14.8722C71.0655 15.3097 70.9396 15.7008 70.6877 16.0455C70.4391 16.3902 70.0911 16.6619 69.6436 16.8608C69.1962 17.0597 68.6758 17.1591 68.0826 17.1591C67.3037 17.1591 66.659 16.9901 66.1486 16.652C65.6382 16.3139 65.315 15.8201 65.1792 15.1705L66.2928 14.892C66.3989 15.303 66.5994 15.6113 66.8944 15.8168C67.1926 16.0223 67.5821 16.125 68.0627 16.125C68.6096 16.125 69.0437 16.009 69.3652 15.777C69.69 15.5417 69.8525 15.2599 69.8525 14.9318C69.8525 14.6667 69.7596 14.4446 69.574 14.2656C69.3884 14.0833 69.1034 13.9474 68.7189 13.858L67.4462 13.5597C66.7469 13.3939 66.2331 13.1371 65.905 12.7891C65.5802 12.4377 65.4178 11.9986 65.4178 11.4716C65.4178 11.0407 65.5388 10.6596 65.7807 10.3281C66.026 9.99669 66.3591 9.73651 66.78 9.54758C67.2042 9.35866 67.6848 9.2642 68.2218 9.2642C68.9775 9.2642 69.5707 9.42992 70.0016 9.76136C70.4358 10.0928 70.744 10.5303 70.9263 11.0739Z" fill="black"/>
</svg>
