<svg viewBox="0 0 400 118" fill="none" xmlns="http://www.w3.org/2000/svg">
<g clip-path="url(#clip0_273_27)">
<mask id="mask0_273_27" style="mask-type:luminance" maskUnits="userSpaceOnUse" x="125" y="36" width="275" height="46">
<path d="M400 36H125V82H400V36Z" fill="white"/>
</mask>
<g mask="url(#mask0_273_27)">
<path d="M161.86 52.2399C161.86 60.6099 156.36 67.0499 146.24 67.0499H138.12V76.6699C138.12 79.0999 136.81 80.4199 134.37 80.4199H128.75C126.31 80.4199 125 79.0999 125 76.6699V40.4399C125 37.9999 126.31 36.6899 128.75 36.6899H146.24C156.42 36.6899 161.86 43.8699 161.86 52.2399ZM148.74 52.3699C148.74 50.0599 147.11 47.9299 144.87 47.9299H138.12V56.6199H144.87C145.939 56.548 146.939 56.0655 147.66 55.2734C148.381 54.4812 148.768 53.4409 148.74 52.3699Z" fill="#231F20"/>
<path d="M166.79 76.6699V40.4399C166.79 37.9999 168.11 36.6899 170.54 36.6899H176.17C178.6 36.6899 179.91 37.9999 179.91 40.4399V54.1199H192.72V40.4399C192.72 37.9999 194 36.6899 196.47 36.6899H202.09C204.53 36.6899 205.84 37.9999 205.84 40.4399V76.6699C205.84 79.0999 204.53 80.4199 202.09 80.4199H196.47C194.03 80.4199 192.72 79.0999 192.72 76.6699V64.7999H179.91V76.6699C179.91 79.0999 178.6 80.4199 176.17 80.4199H170.54C168.11 80.4199 166.79 79.0999 166.79 76.6699Z" fill="#231F20"/>
<path d="M250.32 52.2399C250.32 60.6099 244.82 67.0499 234.7 67.0499H226.58V76.6699C226.58 79.0999 225.27 80.4199 222.83 80.4199H217.21C214.78 80.4199 213.46 79.0999 213.46 76.6699V40.4399C213.46 37.9999 214.78 36.6899 217.21 36.6899H234.7C244.89 36.6899 250.32 43.8699 250.32 52.2399ZM237.2 52.3699C237.2 50.0599 235.58 47.9299 233.33 47.9299H226.58V56.6199H233.33C234.4 56.5504 235.401 56.0687 236.123 55.276C236.845 54.4833 237.231 53.4415 237.2 52.3699Z" fill="#231F20"/>
<path d="M253.51 71.11C252.64 68.73 253.89 67.11 256.26 66.55L259.82 65.74C262.01 65.24 263.13 66.17 264.44 68.17C265.75 70.17 267.88 71.11 270.88 71.11C273.88 71.11 276 70.11 276 68C276 66.94 275.44 65.57 272.31 64.57L267.38 62.69C265.26 62.01 254.63 59.2 254.51 49.89C254.51 41.43 261.63 36 271.19 36C277.94 36 282.68 38.69 285.5 43.68C286.81 45.93 285.75 47.81 283.31 48.49L279.94 49.43C277.81 50.06 276.62 49.18 275.06 47.43C274.597 46.9432 274.033 46.5631 273.408 46.3161C272.782 46.0692 272.111 45.9613 271.44 46C269.32 46 267.32 46.87 267.32 48.74C267.32 49.99 268.19 51.12 270.88 52.05L275.75 53.74C285.5 57.12 288.56 61.36 288.75 67.55C288.75 76.86 280.38 81.1 270.89 81.1C262.26 81.1 256 77.54 253.51 71.11Z" fill="#231F20"/>
<path d="M295.56 69.0501V56.8701H292.93C292.678 56.895 292.424 56.8637 292.186 56.7786C291.948 56.6934 291.731 56.5564 291.553 56.3776C291.374 56.1987 291.237 55.9823 291.152 55.7442C291.066 55.506 291.035 55.2518 291.06 55.0001V49.4301C291.035 49.1784 291.066 48.9242 291.152 48.686C291.237 48.4478 291.374 48.2315 291.553 48.0526C291.731 47.8738 291.948 47.7368 292.186 47.6516C292.424 47.5665 292.678 47.5352 292.93 47.5601H296.93L298 41.7501C298.068 41.0879 298.396 40.4796 298.911 40.058C299.426 39.6364 300.087 39.4359 300.75 39.5001H305.63C305.967 39.4612 306.308 39.4993 306.628 39.6115C306.948 39.7237 307.238 39.9071 307.477 40.1478C307.716 40.3885 307.897 40.6803 308.007 41.0012C308.116 41.3221 308.152 41.6636 308.11 42.0001V47.5601H314.05C314.302 47.5352 314.556 47.5665 314.794 47.6516C315.032 47.7368 315.249 47.8738 315.427 48.0526C315.606 48.2315 315.743 48.4478 315.828 48.686C315.914 48.9242 315.945 49.1784 315.92 49.4301V55.0001C315.946 55.2526 315.916 55.5079 315.832 55.7473C315.747 55.9868 315.611 56.2044 315.432 56.3844C315.253 56.5644 315.036 56.7023 314.797 56.7881C314.558 56.8738 314.303 56.9052 314.05 56.8801H308.11V69.1801C308.11 70.6201 308.8 71.1801 309.68 71.1801C310.99 71.1801 311.42 69.8701 311.42 68.6801C311.432 68.3456 311.412 68.0108 311.36 67.6801C311.24 66.3701 311.67 65.6801 312.92 65.6801H317.55C318.008 65.6306 318.47 65.7409 318.856 65.9924C319.242 66.2438 319.53 66.621 319.67 67.0601C319.963 67.8839 320.131 68.7467 320.17 69.6201C320.17 78.8001 313.67 81.1101 308.05 81.1101C302.18 81.1001 295.56 78.6701 295.56 69.0501Z" fill="#231F20"/>
<path d="M322 63.9999C322 54.0599 328.69 46.8799 337.43 46.8799C341.68 46.8799 345.06 48.6899 346.81 51.6899V51.3199C346.81 48.8799 348.12 47.5699 350.55 47.5699H355.92C358.36 47.5699 359.67 48.8799 359.67 51.3199V76.6699C359.67 79.0999 358.36 80.4199 355.92 80.4199H350.55C348.12 80.4199 346.81 79.0999 346.81 76.6699V76.3599C345.06 79.2899 341.68 81.0999 337.43 81.0999C328.67 81.0999 322 73.9199 322 63.9999ZM347 63.9999C347 59.8699 344.69 56.6899 340.94 56.6899C337.19 56.6899 334.88 59.8699 334.88 63.9999C334.88 68.1299 337.19 71.3099 340.94 71.3099C344.69 71.3099 347 68.1099 347 63.9999Z" fill="#231F20"/>
<path d="M365.78 76.6701V51.3101C365.78 48.8701 367.09 47.5601 369.53 47.5601H374.9C377.34 47.5601 378.65 48.8701 378.65 51.3101V51.6201C380.46 48.6801 383.33 46.8701 387.77 46.8701C397.95 46.8701 399.2 55.8001 399.2 61.1801V76.6701C399.2 79.1001 397.89 80.4201 395.45 80.4201H390.08C387.64 80.4201 386.33 79.1001 386.33 76.6701V62.4201C386.33 59.8601 385.77 56.8701 382.46 56.8701C379.15 56.8701 378.65 59.8701 378.65 62.4201V76.6701C378.65 79.1001 377.34 80.4201 374.9 80.4201H369.53C367.09 80.4201 365.78 79.1001 365.78 76.6701Z" fill="#231F20"/>
</g>
</g>
<path d="M23.6187 89.1602L21.2734 94.7135C20.9502 95.6037 20.979 96.5836 21.3539 97.4533C21.7288 98.3229 22.4214 99.0167 23.2905 99.393C24.1172 99.8051 25.0657 99.9022 25.9587 99.6661C26.8518 99.4299 27.6283 98.8767 28.1432 98.1097L28.9471 96.1885L23.6187 89.1602Z" fill="#232323"/>
<path d="M59.2952 16.9627C65.2426 16.9786 71.0251 18.9191 75.7783 22.4939C76.0522 22.7325 76.4032 22.864 76.7665 22.864C77.1298 22.864 77.4808 22.7325 77.7548 22.4939C78.0286 22.2429 78.1931 21.8947 78.2131 21.5238C78.2331 21.1529 78.1069 20.789 77.8617 20.51C77.0136 19.4496 75.852 18.6843 74.543 18.3233C75.7309 17.0674 77.1875 16.0963 78.8037 15.4827C80.4199 14.869 82.1539 14.6287 83.876 14.7797C92.4421 14.7797 110.64 27.2213 110.64 50.5484C110.64 72.9463 95.9747 77.7732 91.9885 77.7732C85.9226 77.7732 79.6317 71.5045 79.6317 67.5183C81.8796 66.225 83.8219 64.4617 85.3257 62.3488C86.8296 60.2359 87.8595 57.8233 88.3453 55.2758C88.3453 55.2758 88.6661 45.7215 88.3453 37.6274C88.2802 37.2688 88.1018 36.9405 87.8364 36.6908C87.572 36.4423 87.2344 36.2858 86.874 36.2446C86.6737 36.2415 86.4749 36.278 86.2888 36.3521C86.1028 36.4261 85.9332 36.5362 85.7898 36.676C85.4991 36.9597 85.3322 37.3467 85.3252 37.7528C85.3252 38.6562 85.7235 44.2502 85.4248 54.2949C85.1451 56.5664 84.2924 58.7295 82.9469 60.5809C81.6013 62.4322 79.807 63.9109 77.7327 64.878C78.5166 62.6736 79.1668 60.4238 79.6797 58.141C79.8677 57.2597 79.6796 56.6475 79.0933 56.3968C78.8472 56.2873 78.5731 56.2568 78.3089 56.3097C78.0447 56.3625 77.8034 56.496 77.6183 56.6918C77.495 56.8223 77.3996 56.9766 77.3381 57.1453C76.9435 57.9382 63.0122 103.239 43.7413 103.239C27.461 103.239 18.0763 80.0079 18.0763 74.6794C17.9522 73.74 18.0215 72.7851 18.2802 71.8735C18.5388 70.9619 18.9811 70.1128 19.58 69.3785C20.179 68.6442 20.9218 68.0402 21.7628 67.6036C22.6038 67.167 23.5252 66.9071 24.4704 66.8398C27.3854 67.2117 30.0702 68.6169 32.0371 70.8002C32.535 71.7589 29.891 74.0562 29.891 74.0562L27.5863 72.2125C27.3269 72.0111 27.0056 71.9061 26.6773 71.9155C26.3491 71.9249 26.0343 72.0482 25.7868 72.2641C25.5344 72.5104 25.389 72.8461 25.3821 73.1987C25.3752 73.5513 25.5073 73.8925 25.75 74.1484C26.3363 74.7384 43.9367 88.9205 43.9367 88.9205C44.2149 89.1844 44.5767 89.3425 44.9593 89.3674C45.3419 89.3924 45.7211 89.2825 46.0312 89.057C46.2958 88.8052 46.4507 88.4595 46.4624 88.0945C46.4741 87.7295 46.3418 87.3745 46.0939 87.1063L41.1379 83.1127L46.4184 68.2521C46.4184 68.2521 38.3059 64.631 33.0254 68.6208C32.1148 67.2298 30.8807 66.0801 29.4287 65.2703C27.9766 64.4605 26.35 64.0146 24.688 63.9709C22.3152 63.9342 20.0197 64.8138 18.2791 66.4268C16.5307 68.0443 15.4651 70.2678 15.2996 72.6439C9.97367 66.5854 7.142 58.7334 7.37515 50.6701C7.37515 34.5262 20.1597 14.7723 34.9835 14.7723C38.329 14.7692 41.5719 15.9279 44.158 18.0505L40.8835 20.5395C40.6059 20.8036 40.4398 21.1638 40.4192 21.5464C40.3987 21.9289 40.5252 22.3049 40.7728 22.5972C41.0044 22.8567 41.3249 23.0201 41.671 23.0549C42.0172 23.0897 42.3638 22.9935 42.6424 22.7852C47.2486 18.7933 53.2051 16.7106 59.2952 16.9627Z" fill="#516CB3"/>
<path d="M36.3331 79.2815L41.0273 68.6467C42.9046 68.9982 44.8076 69.1956 46.7171 69.2367C52.4269 69.1147 57.8587 66.7475 61.8352 62.6482C65.8117 58.5488 68.0125 53.0476 67.9608 47.3367C68.0556 41.4687 65.8156 35.8035 61.7334 31.5872C57.6513 27.3708 52.0614 24.9488 46.1935 24.854C40.3256 24.7591 34.6603 26.9991 30.444 31.0813C26.2276 35.1635 23.8056 40.7534 23.7108 46.6213C23.5683 50.3753 24.4126 54.101 26.1596 57.4268C27.9066 60.7525 30.4952 63.562 33.667 65.575L29.891 74.0895L36.3331 79.2815ZM72.8688 47.9746C72.6699 47.975 72.4741 47.9248 72.3 47.8286C72.1258 47.7325 71.9789 47.5937 71.8732 47.4252C71.7673 47.2561 71.7057 47.0631 71.6941 46.8639C71.6825 46.6648 71.7213 46.4659 71.8068 46.2857C72.2275 45.4058 72.8735 44.6527 73.6791 44.1029C74.4847 43.5531 75.4213 43.2261 76.3941 43.155C77.3481 43.2042 78.2725 43.5025 79.0754 44.02C79.8783 44.5376 80.5316 45.2565 80.9703 46.105C81.0456 46.2437 81.0926 46.396 81.1084 46.553C81.1243 46.71 81.1086 46.8686 81.0625 47.0195C81.0166 47.1701 80.9412 47.31 80.8405 47.4309C80.7398 47.5519 80.6159 47.6515 80.4762 47.7238C80.3362 47.7951 80.1833 47.8375 80.0267 47.8485C79.87 47.8596 79.7127 47.8391 79.5641 47.7882C79.4156 47.7373 79.2787 47.657 79.1617 47.5522C79.0448 47.4474 78.95 47.3202 78.8832 47.1781C78.6409 46.7142 78.2861 46.3185 77.8512 46.0273C77.4163 45.7361 76.9153 45.5587 76.3941 45.5113C74.7974 45.5113 73.9382 47.285 73.9235 47.285C73.831 47.4877 73.6827 47.6599 73.4959 47.7814C73.3091 47.9028 73.0916 47.9686 72.8688 47.9709V47.9746Z" fill="#232323"/>
<path d="M45.8171 61.5814C48.6366 61.6018 51.3986 60.7845 53.7529 59.2329C56.1072 57.6814 57.9476 55.4656 59.0408 52.8666C60.1339 50.2676 60.4306 47.4024 59.8931 44.6346C59.3556 41.8668 58.0082 39.3209 56.0217 37.3199C54.0353 35.319 51.4993 33.953 48.7354 33.3954C45.9716 32.8378 43.1044 33.1136 40.4975 34.1878C37.8906 35.262 35.6614 37.0863 34.0928 39.4292C32.5242 41.7721 31.6867 44.5281 31.6866 47.3476C31.6798 49.2101 32.0399 51.0556 32.7464 52.7788C33.4528 54.5021 34.4918 56.0693 35.8039 57.3911C37.1161 58.7128 38.6757 59.7631 40.3938 60.4821C42.1118 61.2011 43.9547 61.5746 45.8171 61.5814Z" fill="#D2D2D2"/>
<path d="M45.8174 54.7006C47.2723 54.7108 48.6975 54.2887 49.9123 53.4878C51.127 52.6869 52.0765 51.5433 52.6404 50.202C53.2043 48.8608 53.3572 47.3822 53.0796 45.954C52.802 44.5257 52.1065 43.212 51.0813 42.1796C50.0561 41.1471 48.7474 40.4424 47.3211 40.1547C45.8948 39.8671 44.4153 40.0095 43.07 40.5639C41.7248 41.1183 40.5745 42.0598 39.7651 43.2688C38.9557 44.4779 38.5235 45.9001 38.5235 47.3551C38.5201 48.3163 38.7061 49.2688 39.0708 50.1582C39.4355 51.0475 39.9718 51.8564 40.6491 52.5385C41.3264 53.2206 42.1314 53.7626 43.0182 54.1335C43.905 54.5045 44.8561 54.6972 45.8174 54.7006Z" fill="#232323"/>
</svg>
