<svg viewBox="0 0 141 105" fill="none" xmlns="http://www.w3.org/2000/svg">
<path fill-rule="evenodd" clip-rule="evenodd" d="M42.9086 101.15C42.804 100.965 42.7108 100.773 42.6296 100.577C42.0663 99.2737 41.8929 97.8353 42.1303 96.4357H8.81028L58.3277 9.29553L74.5839 37.8723L79.2977 29.5313L65.1268 4.567C64.7303 3.84744 62.3367 0 58.2102 0C56.3453 0 53.6726 0.807669 51.4992 4.62574L1.33567 92.8232C0.909808 93.5868 -1.16076 97.5958 0.895123 101.15C1.83496 102.765 3.8321 104.689 8.23757 104.689H50.251C45.8749 104.689 43.8484 102.794 42.9086 101.15Z" fill="#01C58E"/>
<path fill-rule="evenodd" clip-rule="evenodd" d="M139.506 92.8231L98.2854 20.2063C97.8596 19.4427 95.4806 15.5806 91.3395 15.5806C89.4745 15.5806 86.8018 16.3735 84.6285 20.1916L79.2979 29.5312L84.0411 37.8722L91.3835 24.8761L132.163 96.4356H116.656C116.855 97.6185 116.743 98.8327 116.333 99.9599C116.247 100.209 116.139 100.45 116.01 100.679L115.878 100.944C113.793 104.498 109.284 104.688 108.403 104.688H132.663C133.559 104.688 138.052 104.498 140.137 100.944C141.062 99.3285 141.723 96.6118 139.506 92.8231Z" fill="#108775"/>
<path fill-rule="evenodd" clip-rule="evenodd" d="M115.878 100.944L116.01 100.68C116.139 100.45 116.247 100.209 116.333 99.96C116.743 98.8328 116.855 97.6186 116.656 96.4356C116.428 95.1598 115.97 93.9358 115.305 92.8231L84.0704 37.8723L79.2978 29.5312L74.5546 37.8723L43.3345 92.8231C42.7284 93.9491 42.321 95.1711 42.1304 96.4356C41.8791 97.831 42.0372 99.2693 42.5856 100.577C42.6668 100.773 42.76 100.964 42.8646 101.149C43.8045 102.765 45.8016 104.689 50.2071 104.689H108.359C109.284 104.689 113.793 104.498 115.878 100.944ZM79.2978 46.2133L107.845 96.4356H50.7651L79.2978 46.2133Z" fill="#2F495E"/>
</svg>
