<svg width="20" height="20" viewBox="0 0 20 20" fill="none" xmlns="http://www.w3.org/2000/svg">
<path d="M10 0C11.9778 0 13.9112 0.58649 15.5557 1.6853C17.2002 2.78412 18.4819 4.3459 19.2388 6.17317C19.9957 8.00043 20.1937 10.0111 19.8079 11.9509C19.422 13.8907 18.4696 15.6725 17.0711 17.0711C15.6725 18.4696 13.8907 19.422 11.9509 19.8079C10.0111 20.1937 8.00043 19.9957 6.17317 19.2388C4.3459 18.4819 2.78412 17.2002 1.6853 15.5557C0.58649 13.9112 0 11.9778 0 10C0 7.34784 1.05357 4.8043 2.92893 2.92893C4.8043 1.05357 7.34784 0 10 0ZM8 13.33C8.15038 13.8187 8.15038 14.3413 8 14.83C8 14.88 8 14.93 7.94 15C7.88 15.07 7.94 15.07 7.87 15.12C7.75424 15.3669 7.59885 15.5933 7.41 15.79C6.83 16.43 6 16.67 5.67 16.47C5.34 16.27 5.5 15.35 6.16 14.64C6.67683 14.1302 7.27079 13.7049 7.92 13.38L8 13.33ZM16.27 4.33C15.82 2.55 12.87 1.97 10.09 2.96C8.34708 3.53031 6.73318 4.43749 5.34 5.63C3.81 7.07 3.56 8.32 3.66 8.84C4 10.68 6.54 11.89 7.58 12.78C7.28 12.93 5.04 14.06 4.5 15.22C4.27165 15.5823 4.19607 16.0203 4.28976 16.4382C4.38346 16.8561 4.63882 17.2199 5 17.45C5.64132 17.6047 6.31497 17.5548 6.92651 17.3074C7.53804 17.0599 8.05679 16.6272 8.41 16.07C8.70206 15.6202 8.8849 15.1083 8.94394 14.5753C9.00297 14.0423 8.93656 13.5028 8.75 13C9.25122 12.8828 9.76929 12.8557 10.28 12.92C12.04 13.13 12.38 14.22 12.28 14.68C12.2502 14.8434 12.1857 14.9985 12.0908 15.1347C11.9959 15.271 11.8729 15.3854 11.73 15.47C11.61 15.54 11.57 15.57 11.58 15.63C11.59 15.69 11.65 15.71 11.75 15.69C12.0228 15.6158 12.2657 15.4585 12.445 15.2398C12.6242 15.0211 12.7308 14.7521 12.75 14.47C12.75 13.39 11.75 12.19 9.94 12.22C9.41147 12.2076 8.8845 12.282 8.38 12.44L8.3 12.35C7.17 11.15 5.09 10.35 5.18 8.68C5.18 8.09 5.41 6.55 9.18 4.68C12.26 3.14 14.73 3.56 15.18 4.51C15.79 5.84 13.86 8.33 10.66 8.69C10.3096 8.7563 9.94896 8.745 9.60342 8.65689C9.25788 8.56877 8.93585 8.40599 8.66 8.18C8.49 8.01 8.47 7.98 8.41 8.01C8.35 8.04 8.41 8.24 8.41 8.34C8.66429 8.778 9.07527 9.10322 9.56 9.25C10.8212 9.5222 12.136 9.39282 13.32 8.88C15.2 8.12 16.72 6 16.27 4.28V4.33Z" fill="#CD6799"/>
</svg>
