<svg viewBox="0 0 264 264" fill="none" xmlns="http://www.w3.org/2000/svg">
<path d="M259.856 59.6196C259.951 59.9709 260 60.3332 260 60.6971V117.265C260 118.743 259.209 120.108 257.927 120.843L210.449 148.179V202.36C210.449 203.834 209.665 205.195 208.387 205.938L109.279 262.99C109.052 263.119 108.805 263.202 108.557 263.289C108.464 263.32 108.377 263.377 108.279 263.403C107.586 263.585 106.858 263.585 106.165 263.403C106.051 263.372 105.948 263.31 105.84 263.269C105.613 263.186 105.376 263.114 105.16 262.99L6.07258 205.938C4.79137 205.202 4 203.837 4 202.36V32.6554C4 32.2842 4.05156 31.9233 4.14436 31.5727C4.17529 31.4541 4.24747 31.3459 4.28872 31.2273C4.36605 31.0107 4.43823 30.789 4.55166 30.588C4.62899 30.4539 4.74242 30.3457 4.83522 30.2219C4.9538 30.0569 5.06207 29.8868 5.20127 29.7424C5.31985 29.6239 5.47452 29.5362 5.60857 29.4331C5.75809 29.3094 5.89213 29.1753 6.06227 29.0774H6.06743L55.6135 0.550994C56.8902 -0.183665 58.4613 -0.183665 59.738 0.550994L109.284 29.0774H109.294C109.459 29.1805 109.599 29.3094 109.748 29.4279C109.882 29.5311 110.032 29.6239 110.15 29.7373C110.295 29.8868 110.398 30.0569 110.521 30.2219C110.609 30.3457 110.728 30.4539 110.8 30.588C110.918 30.7942 110.985 31.0107 111.068 31.2273C111.109 31.3459 111.181 31.4541 111.212 31.5779C111.307 31.9292 111.356 32.2915 111.357 32.6554V138.651L152.643 114.878V60.692C152.643 60.3311 152.695 59.965 152.788 59.6196C152.824 59.4959 152.891 59.3876 152.932 59.269C153.015 59.0525 153.087 58.8308 153.2 58.6297C153.277 58.4956 153.391 58.3874 153.479 58.2636C153.602 58.0987 153.705 57.9285 153.85 57.7842C153.968 57.6656 154.118 57.5779 154.252 57.4748C154.407 57.3511 154.541 57.217 154.706 57.1191H154.711L204.262 28.5927C205.538 27.857 207.11 27.857 208.387 28.5927L257.933 57.1191C258.108 57.2222 258.242 57.3511 258.397 57.4697C258.525 57.5728 258.675 57.6656 258.794 57.779C258.938 57.9285 259.041 58.0987 259.165 58.2636C259.258 58.3874 259.371 58.4956 259.443 58.6297C259.562 58.8308 259.629 59.0525 259.711 59.269C259.758 59.3876 259.825 59.4959 259.856 59.6196ZM251.741 114.878V67.8377L234.402 77.8191L210.449 91.6106V138.651L251.746 114.878H251.741ZM202.195 199.973V152.901L178.633 166.358L111.352 204.757V252.272L202.195 199.973ZM12.2594 39.796V199.973L103.092 252.267V204.762L55.6393 177.906L55.6238 177.896L55.6032 177.886C55.4433 177.793 55.3093 177.659 55.1598 177.545C55.0309 177.442 54.8814 177.36 54.768 177.246L54.7576 177.231C54.6236 177.102 54.5308 176.942 54.4174 176.798C54.3143 176.659 54.1905 176.54 54.108 176.396L54.1029 176.38C54.0101 176.226 53.9534 176.04 53.8863 175.865C53.8193 175.71 53.7317 175.566 53.6904 175.401V175.395C53.6389 175.2 53.6285 174.993 53.6079 174.792C53.5873 174.638 53.5461 174.483 53.5461 174.328V174.318V63.5688L29.5979 49.7722L12.2594 39.8012V39.796ZM57.6809 8.89288L16.3994 32.6554L57.6706 56.4179L98.947 32.6502L57.6706 8.89288H57.6809ZM79.1492 157.191L103.097 143.405V39.796L85.7587 49.7774L61.8055 63.5688V167.177L79.1492 157.191ZM206.324 36.9346L165.048 60.6971L206.324 84.4596L247.595 60.692L206.324 36.9346ZM202.195 91.6106L178.241 77.8191L160.903 67.8377V114.878L184.851 128.664L202.195 138.651V91.6106ZM107.217 197.616L167.76 163.053L198.024 145.781L156.778 122.034L109.289 149.375L66.0073 174.292L107.217 197.616Z" fill="#FF2D20"/>
</svg>
