<svg width="24" height="24" viewBox="0 0 24 24" fill="none" xmlns="http://www.w3.org/2000/svg">
<path fill-rule="evenodd" clip-rule="evenodd" d="M9.45988 0C7.57321 0 6.04381 1.48106 6.04381 3.30804V5.59823H11.9562V6.23439H3.41606C1.52942 6.23439 0 7.71546 0 9.54242V14.5045C0 16.3315 1.52942 17.8125 3.41606 17.8125H5.38687V15.0134C5.38687 13.1865 6.9163 11.7054 8.80297 11.7054H15.1095C16.7059 11.7054 18 10.4522 18 8.90629V3.30804C18 1.48106 16.4706 0 14.584 0H9.45988ZM8.67159 4.07144C9.32463 4.07144 9.85403 3.55876 9.85403 2.92635C9.85403 2.29393 9.32463 1.78125 8.67159 1.78125C8.01845 1.78125 7.48906 2.29393 7.48906 2.92635C7.48906 3.55876 8.01845 4.07144 8.67159 4.07144Z" fill="url(#paint0_linear_1031_4701)"/>
<path fill-rule="evenodd" clip-rule="evenodd" d="M14.5401 24C16.4268 24 17.9562 22.519 17.9562 20.692V18.4018H12.0438V17.7657H20.584C22.4706 17.7657 24 16.2846 24 14.4576V9.49551C24 7.66855 22.4706 6.1875 20.584 6.1875H18.6132V8.98658C18.6132 10.8136 17.0837 12.2947 15.1971 12.2947H8.89051C7.29408 12.2947 6 13.5478 6 15.0937V20.692C6 22.519 7.52945 24 9.41604 24H14.5401ZM15.3285 19.9286C14.6754 19.9286 14.146 20.4412 14.146 21.0737C14.146 21.7061 14.6754 22.2187 15.3285 22.2187C15.9816 22.2187 16.5109 21.7061 16.5109 21.0737C16.5109 20.4412 15.9816 19.9286 15.3285 19.9286Z" fill="url(#paint1_linear_1031_4701)"/>
<defs>
<linearGradient id="paint0_linear_1031_4701" x1="12.0001" y1="0" x2="12.0001" y2="24" gradientUnits="userSpaceOnUse">
<stop stop-color="#327EBD"/>
<stop offset="1" stop-color="#1565A7"/>
</linearGradient>
<linearGradient id="paint1_linear_1031_4701" x1="15" y1="6.1875" x2="15" y2="24" gradientUnits="userSpaceOnUse">
<stop stop-color="#FFDA4B"/>
<stop offset="1" stop-color="#F9C600"/>
</linearGradient>
</defs>
</svg>
