<svg viewBox="0 0 154 28" fill="none" xmlns="http://www.w3.org/2000/svg">
<path d="M3.35672 8.48326H9.11848L5.76177 27.446H0L3.35672 8.48326ZM3.69239 3.4391C4.0052 1.60507 5.76177 0.00119182 7.6627 0.00119182C9.56364 0.00119182 10.8522 1.55379 10.5731 3.4379C10.2927 5.3232 8.50369 6.87581 6.545 6.87581C4.58752 6.87581 3.3892 5.20873 3.69239 3.4379V3.4391ZM30.3753 15.8015L28.3059 27.4448H22.5995L24.5004 16.6326C24.9312 14.1904 23.6065 13.1959 21.7597 13.1959C19.8588 13.1959 18.0264 14.2846 17.5644 16.8544L15.6635 27.4436H9.95706L13.3138 8.48326H19.0755L18.7952 10.2565C20.0826 8.81477 22.2638 7.9073 24.4451 7.92876C28.3059 7.96454 31.2716 10.7561 30.3753 15.8015ZM52.8617 17.9634C52.7835 18.4046 52.5826 19.46 52.2481 20.2363H38.5409C38.8766 22.3434 40.6668 22.8979 42.4571 22.8979C44.0789 22.8979 45.365 22.4543 46.4839 21.4013L50.512 24.6723C48.2742 26.8903 45.6454 27.9993 42.1214 27.9993C35.5199 27.9993 32.0657 23.289 33.0017 17.6307C33.4454 14.9345 34.8431 12.483 36.9445 10.7152C39.0459 8.94753 41.7137 7.97916 44.4699 7.98361C49.9525 7.99196 53.9012 12.1919 52.8617 17.9634ZM47.4356 15.9124C47.2684 13.8053 45.7585 12.9908 43.9682 12.9741C42.989 12.9598 42.027 13.2306 41.2015 13.7529C40.3761 14.2752 39.7233 15.026 39.3241 15.9124H47.4356ZM69.3084 8.09452L68.1895 14.5255C65.9517 14.1928 62.3267 14.9715 61.6445 18.8506L60.1346 27.4448H54.4282L57.7849 8.48207H63.5467L62.9319 11.92C64.1061 9.31442 66.623 8.09452 69.3084 8.09452ZM77.0842 20.6799C76.7702 22.3935 78.2031 22.5103 80.7754 22.2885L79.8803 27.4448C73.0008 28.2199 70.455 25.9518 71.3778 20.6799L72.5533 13.971H69.4757L70.4827 8.48207H73.5037L74.1751 4.87841L80.2159 3.16006L79.2655 8.48207H83.237L82.23 13.971H78.315L77.0842 20.6799ZM86.8728 8.48207H92.6358L89.2791 27.4448H83.5161L86.8728 8.48207ZM87.2097 3.4379C87.5201 1.61342 89.2791 0 91.18 0C93.081 0 94.3683 1.5526 94.0892 3.43671C93.8101 5.32082 92.0198 6.87461 90.0623 6.87461C88.1048 6.87461 86.9053 5.21707 87.2085 3.43671L87.2097 3.4379ZM116.41 8.48207L113.053 27.4448H107.29L107.515 26.1688C105.879 27.4448 103.834 28.0231 101.752 27.9993C95.5438 27.9277 93.2229 22.6809 94.2011 17.5198C95.1251 12.6462 99.0124 7.98361 104.941 7.98361C107.458 7.98361 109.249 8.98171 110.312 10.5343L110.648 8.53811H116.41V8.48207ZM109.025 18.0195C109.534 15.1373 107.962 13.3724 105.334 13.3617C102.641 13.3498 100.425 15.3257 100.019 17.9646C99.5815 20.8027 101.026 22.5366 103.711 22.5652C106.285 22.5926 108.527 20.848 109.025 18.0195ZM144.379 8.92567H134.422L144.043 18.4631L134.422 27.9993H144.379L154 18.4643L144.379 8.92567ZM129.331 8.92567H119.374L128.995 18.4631L119.374 27.9993H129.331L138.953 18.4631L129.331 8.92567Z" fill="url(#paint0_linear_1_9)"/>
<defs>
<linearGradient id="paint0_linear_1_9" x1="0" y1="14.0008" x2="154" y2="14.0008" gradientUnits="userSpaceOnUse">
<stop stop-color="#9553E9"/>
<stop offset="1" stop-color="#6D74ED"/>
</linearGradient>
</defs>
</svg>
