<svg viewBox="0 0 38 10" fill="none" xmlns="http://www.w3.org/2000/svg" height="36">
<path d="M22.7197 0H24.6897V1.77H22.7197V0Z" fill="#356388"/>
<path d="M22.7201 4.77V6.99C22.7201 7.51 22.4401 7.83 21.9701 7.83C21.5301 7.83 21.2101 7.55 21.2101 6.98V0H20.9301C19.7501 0 19.1201 0.76 19.1201 2.24V7.04C19.1201 8.84 20.1501 9.65 21.8501 9.65C23.4501 9.65 24.7001 8.73 24.6901 7V4.78H22.7201V4.77Z" fill="#356388"/>
<path d="M31.5597 0H33.4897V1.88H31.5597V0ZM25.6797 7.62H27.6097V9.5H25.6797V7.62ZM22.7197 2.33H24.6897V4.21H22.7197V2.33Z" fill="#39B54A"/>
<path d="M15.88 0H14.63C13.45 0 12.82 0.76 12.82 2.24V9.51H14.9V6.13H15.82C17.54 6.13 18.27 4.93 18.27 2.94C18.27 1 17.44 0 15.88 0ZM15.5 4.44H14.9V1.71H15.51C16 1.71 16.24 2.08 16.24 3C16.24 3.98 15.98 4.44 15.5 4.44ZM3.06 0H1.81C0.63 0 0 0.76 0 2.24V9.51H2.08V6.13H3C4.72 6.13 5.45 4.93 5.45 2.94C5.45 1 4.62 0 3.06 0ZM2.67 4.44H2.07V1.71H2.68C3.17 1.71 3.41 2.08 3.41 3C3.42 3.98 3.15 4.44 2.67 4.44ZM11.52 0C10.34 0 9.71 0.76 9.71 2.24V3.79H8.23V0H7.96C6.78 0 6.15 0.76 6.15 2.24V9.51H8.23V5.67H9.71V9.51H11.78V0.0100002H11.52V0Z" fill="#3C9CD7"/>
<path d="M37.8099 3.88955V2.39955H36.8399V0.789551H36.2299C35.3799 0.789551 34.9199 1.33955 34.9199 2.39955H34.2899V3.88955H34.9199V8.08955C34.9199 9.13955 35.6699 9.60955 36.6099 9.60955C36.9799 9.60955 37.4499 9.53955 37.7999 9.41955V7.88955C37.6499 7.91955 37.4399 7.92955 37.2399 7.92955C36.9299 7.92955 36.8399 7.77955 36.8399 7.51955V3.88955H37.8099ZM29.0899 2.16955C28.4599 2.16955 27.9599 2.43955 27.6099 2.93955V2.32955H26.9799C26.1299 2.32955 25.6699 2.87955 25.6699 3.93955V7.05955H27.5999V4.52955C27.5999 4.09955 27.8099 3.77955 28.1299 3.77955C28.5599 3.77955 28.6499 4.10955 28.6499 4.40955V9.49955H30.5699V3.68955C30.5899 2.74955 29.9199 2.16955 29.0899 2.16955ZM32.8699 2.39955C32.0199 2.39955 31.5599 2.94955 31.5599 4.00955V9.49955H33.4899V2.39955H32.8699Z" fill="#356388"/>
</svg>
